# xmcd
#
# Track frame offsets:
#	150
#	16752
#	29495
#	43112
#	58767
#	73055
#	88120
#	103297
#	115910
#	130847
#
# Disc length: 1951 seconds
#
# Revision: 3
# Processed by: cddbd v1.5.1PL2 Copyright (c) Steve Scherf et al.
# Submitted via: dBpowerAMP V4.0
#
DISCID=8c079d0a
DTITLE=Tracy Byrd - Big Love
DYEAR=1996
DGENRE=Country
TTITLE0=Big Love
TTITLE1=Cowgirl
TTITLE2=Good Ol' Fashioned Love
TTITLE3=Don't Take Her She's All I Got
TTITLE4=If I Stay
TTITLE5=Don't Love Make A Diamond Shine
TTITLE6=Tucson Too Soon
TTITLE7=I Don't Believe Thats How You Feel
TTITLE8=Driving Me Out Of Your Mind 
TTITLE9=I Love You,Thats All
EXTD=
EXTT0=
EXTT1=
EXTT2=
EXTT3=
EXTT4=
EXTT5=
EXTT6=
EXTT7=
EXTT8=
EXTT9=
PLAYORDER=
